HIERARCHY
ROOT Hips
{
	OFFSET 0.000000 0.000000 0.000000
	CHANNELS 6 Xposition Yposition Zposition Zrotation Yrotation Xrotation 
	JOINT LHipJoint
	{
		OFFSET 0.000000 0.000000 0.000000
		CHANNELS 3 Zrotation Yrotation Xrotation
		JOINT LeftUpLeg
		{
			OFFSET 1.363060 -1.794630 0.839290
			CHANNELS 3 Zrotation Yrotation Xrotation
			JOINT LeftLeg
			{
				OFFSET 2.448110 -6.726130 0.000000
				CHANNELS 3 Zrotation Yrotation Xrotation
				JOINT LeftFoot
				{
					OFFSET 2.562200 -7.039590 0.000000
					CHANNELS 3 Zrotation Yrotation Xrotation
					JOINT LeftToeBase
					{
						OFFSET 0.157640 -0.433110 2.322550
						CHANNELS 3 Zrotation Yrotation Xrotation
						End Site
						{
							OFFSET 0.000000 0.000000 0.000000
						}
					}
				}
			}
		}
	}
	JOINT RHipJoint
	{
		OFFSET 0.000000 0.000000 0.000000
		CHANNELS 3 Zrotation Yrotation Xrotation
		JOINT RightUpLeg
		{
			OFFSET -1.305520 -1.794630 0.839290
			CHANNELS 3 Zrotation Yrotation Xrotation
			JOINT RightLeg
			{
				OFFSET -2.542530 -6.985550 0.000000
				CHANNELS 3 Zrotation Yrotation Xrotation
				JOINT RightFoot
				{
					OFFSET -2.568260 -7.056230 0.000000
					CHANNELS 3 Zrotation Yrotation Xrotation
					JOINT RightToeBase
					{
						OFFSET -0.164730 -0.452590 2.363150
						CHANNELS 3 Zrotation Yrotation Xrotation
						End Site
						{
							OFFSET 0.000000 0.000000 0.000000
						}
					}
				}
			}
		}
	}
	JOINT LowerBack
	{
		OFFSET 0.000000 0.000000 0.000000
		CHANNELS 3 Zrotation Yrotation Xrotation
		JOINT Spine
		{
			OFFSET 0.028270 2.035590 -0.193380
			CHANNELS 3 Zrotation Yrotation Xrotation
			JOINT Spine1
			{
				OFFSET 0.056720 2.048850 -0.042750
				CHANNELS 3 Zrotation Yrotation Xrotation
				JOINT Neck
				{
					OFFSET 0.000000 0.000000 0.000000
					CHANNELS 3 Zrotation Yrotation Xrotation
					JOINT Neck1
					{
						OFFSET -0.054170 1.746240 0.172020
						CHANNELS 3 Zrotation Yrotation Xrotation
						JOINT Head
						{
							OFFSET 0.104070 1.761360 -0.123970
							CHANNELS 3 Zrotation Yrotation Xrotation
							End Site
							{
								OFFSET 0.000000 0.000000 0.000000
							}
						}
					}
				}
				JOINT LeftShoulder
				{
					OFFSET 0.000000 0.000000 0.000000
					CHANNELS 3 Zrotation Yrotation Xrotation
					JOINT LeftArm
					{
						OFFSET 3.362410 1.200890 -0.311210
						CHANNELS 3 Zrotation Yrotation Xrotation
						JOINT LeftForeArm
						{
							OFFSET 4.983000 -0.000000 -0.000000
							CHANNELS 3 Zrotation Yrotation Xrotation
							JOINT LeftHand
							{
								OFFSET 3.483560 -0.000000 -0.000000
								CHANNELS 3 Zrotation Yrotation Xrotation
								JOINT LeftFingerBase
								{
									OFFSET 0.000000 0.000000 0.000000
									CHANNELS 3 Zrotation Yrotation Xrotation
									JOINT LeftHandIndex1
									{
										OFFSET 0.715260 -0.000000 -0.000000
										CHANNELS 3 Zrotation Yrotation Xrotation
										End Site
										{
											OFFSET 0.000000 0.000000 0.000000
										}
									}
								}
								JOINT LThumb
								{
									OFFSET 0.000000 0.000000 0.000000
									CHANNELS 3 Zrotation Yrotation Xrotation
									End Site
									{
										OFFSET 0.000000 0.000000 0.000000
									}
								}
							}
						}
					}
				}
				JOINT RightShoulder
				{
					OFFSET 0.000000 0.000000 0.000000
					CHANNELS 3 Zrotation Yrotation Xrotation
					JOINT RightArm
					{
						OFFSET -3.136600 1.374050 -0.404650
						CHANNELS 3 Zrotation Yrotation Xrotation
						JOINT RightForeArm
						{
							OFFSET -5.241900 -0.000000 -0.000000
							CHANNELS 3 Zrotation Yrotation Xrotation
							JOINT RightHand
							{
								OFFSET -3.444170 -0.000000 -0.000000
								CHANNELS 3 Zrotation Yrotation Xrotation
								JOINT RightFingerBase
								{
									OFFSET 0.000000 0.000000 0.000000
									CHANNELS 3 Zrotation Yrotation Xrotation
									JOINT RightHandIndex1
									{
										OFFSET -0.622530 -0.000000 -0.000000
										CHANNELS 3 Zrotation Yrotation Xrotation
										End Site
										{
											OFFSET 0.000000 0.000000 0.000000
										}
									}
								}
								JOINT RThumb
								{
									OFFSET 0.000000 0.000000 0.000000
									CHANNELS 3 Zrotation Yrotation Xrotation
									End Site
									{
										OFFSET 0.000000 0.000000 0.000000
									}
								}
							}
						}
					}
				}
			}
		}
	}
}
MOTION
Frames: 7
Frame Time: 0.008333
2.551717 17.633056 2.849437 -168.170345 -84.228750 -174.239874 -10.823583 1.404749 -0.094717 -7.941509 5.768667 -15.299884 -2.037646 -0.350162 10.131042 0.746893 4.985225 -1.115356 0.658400 0.000000 -43.195601 9.751303 -0.189744 -2.248549 10.741156 -9.166618 -40.893806 1.027035 -3.797496 47.452033 -0.767179 -2.852678 0.704532 -0.642800 0.000001 -53.896500 -2.079733 -1.741166 3.011791 -1.203296 -1.589315 -2.313299 -7.099003 -1.642004 0.676658 10.448878 -2.697711 -4.326645 -3.006761 -0.249763 0.729264 0.000000 0.000000 0.000000 -7.230881 2.746716 3.323182 -49.920741 -21.244667 16.027344 -3.795478 -45.171984 0.027373 -9.701823 -1.907070 0.172547 -0.089533 0.129067 0.000000 0.000000 0.000000 0.000000 0.000000 0.000000 0.000000 12.970888 -0.919155 1.677866 62.862069 -3.757647 12.735542 3.807184 25.677421 0.016361 8.933594 11.784578 0.921964 0.050206 -0.035520 0.000000 0.000000 0.000000 0.000000 0.000000 0.000000 0.000000 
2.334686 17.630576 2.836082 -168.022090 -84.869365 -174.269483 -10.851041 1.495203 -0.103740 -7.773880 5.605993 -14.341805 -2.048954 -0.344539 9.629003 0.661605 4.422415 -0.766058 0.621200 0.000000 -44.135199 9.619603 -0.046503 -2.035123 10.806399 -8.640134 -41.780534 1.240754 -3.630351 44.898763 -0.721724 -2.643386 0.881996 -0.659200 -0.000000 -54.340000 -1.807129 -2.041102 2.882962 -1.149942 -1.909822 -2.298099 -7.154789 -1.954353 0.745034 10.628866 -3.258263 -4.373665 -3.023434 -0.250694 0.722368 0.000000 0.000000 0.000000 -6.584329 2.190234 3.371570 -48.726837 -22.688679 15.923310 -3.631844 -47.062894 0.030111 -9.770429 -1.970606 0.180860 -0.079409 0.145650 0.000000 0.000000 0.000000 0.000000 0.000000 0.000000 0.000000 13.301504 -1.654659 1.680313 62.716716 -4.753067 12.752391 3.811891 25.925454 0.015949 8.902656 11.854808 0.923952 0.050734 -0.031979 0.000000 0.000000 0.000000 0.000000 0.000000 0.000000 0.000000 
2.119004 17.620458 2.819903 -168.527277 -85.516060 -173.643987 -10.869853 1.569986 -0.130370 -7.637229 5.385057 -13.377656 -2.061198 -0.337131 9.209139 0.583950 3.882095 -0.512255 0.574300 0.000000 -45.064000 9.495190 0.097574 -1.799477 10.705992 -8.053077 -42.542572 1.448665 -3.435996 42.117125 -0.694796 -2.566580 1.216643 -0.708501 0.000000 -54.755700 -1.606996 -2.340067 2.760496 -1.111753 -2.226644 -2.278559 -7.203688 -2.262359 0.822100 10.812643 -3.878171 -4.436820 -3.039148 -0.251435 0.710640 0.000000 0.000000 0.000000 -5.884758 1.645271 3.404373 -47.421601 -24.108436 15.680001 -3.454757 -48.869556 0.032828 -9.838707 -2.018794 0.187858 -0.067758 0.162592 0.000000 0.000000 0.000000 0.000000 0.000000 0.000000 0.000000 13.646377 -2.456184 1.675938 62.518354 -5.688727 12.849760 3.806867 26.278024 0.015588 8.829355 11.936425 0.922343 0.051204 -0.028855 0.000000 0.000000 0.000000 0.000000 0.000000 0.000000 0.000000 
1.904557 17.602551 2.800906 -170.118808 -86.171142 -171.939165 -10.883049 1.624593 -0.180694 -7.539602 5.122943 -12.383228 -2.075534 -0.331028 8.850572 0.512979 3.367083 -0.354777 0.521200 0.000001 -45.984300 9.377236 0.236763 -1.542345 10.432141 -7.420727 -43.168193 1.649594 -3.211340 39.104789 -0.686772 -2.617287 1.670002 -0.791000 -0.000000 -55.056000 -1.484508 -2.639119 2.651987 -1.090189 -2.540482 -2.254972 -7.243751 -2.567041 0.901286 10.995255 -4.531497 -4.508215 -3.053271 -0.252027 0.696165 0.000000 0.000000 0.000000 -5.132969 1.106626 3.421340 -46.008267 -25.482188 15.299047 -3.265058 -50.590587 0.035525 -9.906614 -2.055149 0.194043 -0.054534 0.179872 0.000000 0.000000 0.000000 0.000000 0.000000 0.000000 0.000000 13.994038 -3.297748 1.664249 62.291416 -6.592804 12.951761 3.794110 26.721241 0.015253 8.735911 12.016690 0.918334 0.051533 -0.026090 0.000000 0.000000 0.000000 0.000000 0.000000 0.000000 0.000000 
1.691236 17.576840 2.779054 -173.579767 -86.848320 -168.381010 -10.890832 1.650502 -0.261674 -7.488500 4.836845 -11.336142 -2.093333 -0.330818 8.534735 0.446702 2.875377 -0.287974 0.464900 -0.000000 -46.903000 9.266593 0.360741 -1.263471 9.980226 -6.767032 -43.654912 1.842531 -2.955358 35.864095 -0.697125 -2.779180 2.202339 -0.904700 -0.000000 -55.167900 -1.440083 -2.943622 2.564658 -1.086429 -2.856765 -2.227210 -7.272930 -2.873993 0.977667 11.172199 -5.202269 -4.582766 -3.065145 -0.252479 0.680290 0.000000 0.000000 0.000000 -4.331042 0.568471 3.422073 -44.493237 -26.791315 14.781928 -3.064434 -52.223783 0.038220 -9.976228 -2.083380 0.199614 -0.039716 0.197487 -0.000000 0.000000 0.000000 0.000000 0.000000 0.000000 0.000000 14.334655 -4.165615 1.644823 62.055355 -7.484405 13.008310 3.775315 27.243981 0.014923 8.640366 12.087764 0.913427 0.051661 -0.023616 0.000000 0.000000 0.000000 0.000000 0.000000 0.000000 0.000000 
1.478474 17.543290 2.754434 179.701468 -87.579724 -161.582669 -10.875853 1.634942 -0.381950 -7.483542 4.540692 -10.218379 -2.116853 -0.343690 8.248301 0.382012 2.398629 -0.302031 0.408099 -0.000000 -47.828800 9.176962 0.454370 -0.958771 9.354237 -6.124171 -44.012009 2.025380 -2.670617 32.401619 -0.725122 -3.027038 2.776990 -1.044200 0.000000 -55.054800 -1.448712 -3.266045 2.503832 -1.097924 -3.189624 -2.194077 -7.289498 -3.197140 1.052358 11.337895 -5.896276 -4.662539 -3.073318 -0.252661 0.662451 0.000000 0.000000 0.000000 -3.485836 0.032502 3.405227 -42.884589 -28.031465 14.135271 -2.855318 -53.762773 0.040931 -10.048269 -2.106556 0.204974 -0.023326 0.215466 -0.000000 0.000000 0.000000 0.000000 0.000000 0.000000 0.000000 14.656837 -5.072930 1.616582 61.821829 -8.352502 13.022477 3.751414 27.822130 0.014603 8.539984 12.155206 0.907621 0.051652 -0.021380 0.000000 0.000000 0.000000 0.000000 0.000000 0.000000 0.000000 
1.265828 17.502031 2.727161 167.521079 -88.396242 -149.342377 -10.759007 1.581994 -0.552357 -7.498431 4.249251 -9.019264 -2.151907 -0.373632 7.979753 0.317520 1.928540 -0.387890 0.353000 0.000001 -48.770800 9.172116 0.525635 -0.619868 8.586883 -5.518896 -44.247414 2.186612 -2.358582 28.728258 -0.769089 -3.329071 3.368559 -1.199600 -0.000000 -54.728700 -1.409115 -3.613028 2.472570 -1.107975 -3.550888 -2.157559 -7.296840 -3.548591 1.120488 11.487732 -6.591390 -4.742736 -3.078033 -0.252626 0.644125 0.000000 0.000000 0.000000 -2.606178 -0.508205 3.370748 -41.197282 -29.185446 13.364686 -2.640136 -55.207036 0.043688 -10.123028 -2.124780 0.210023 -0.005454 0.233905 -0.000000 0.000000 0.000000 0.000000 0.000000 0.000000 0.000000 14.952450 -5.998378 1.581067 61.605512 -9.231220 12.941971 3.725054 28.458363 0.014269 8.457028 12.208901 0.902515 0.051466 -0.019292 0.000000 0.000000 0.000000 0.000000 0.000000 0.000000 0.000000 
